<?xml version="1.0" encoding="UTF-8" standalone="no"?>
<!-- Created with Inkscape (http://www.inkscape.org/) -->

<svg
   xmlns:dc="http://purl.org/dc/elements/1.1/"
   xmlns:cc="http://creativecommons.org/ns#"
   xmlns:rdf="http://www.w3.org/1999/02/22-rdf-syntax-ns#"
   xmlns="http://www.w3.org/2000/svg"
   xmlns:sodipodi="http://sodipodi.sourceforge.net/DTD/sodipodi-0.dtd"
   xmlns:inkscape="http://www.inkscape.org/namespaces/inkscape"
   version="1.1"
   width="172.74939"
   height="38.236874"
   id="svg2"
   xml:space="preserve"
   inkscape:version="0.48.2 r9819"
   sodipodi:docname="ET_Ka2014-Logo_mini_white.svg"><sodipodi:namedview
     pagecolor="#ffffff"
     bordercolor="#666666"
     borderopacity="1"
     objecttolerance="10"
     gridtolerance="10"
     guidetolerance="10"
     inkscape:pageopacity="0"
     inkscape:pageshadow="2"
     inkscape:window-width="2556"
     inkscape:window-height="1396"
     id="namedview3114"
     showgrid="false"
     inkscape:zoom="5.2507014"
     inkscape:cx="37.337343"
     inkscape:cy="-35.689847"
     inkscape:window-x="4"
     inkscape:window-y="0"
     inkscape:window-maximized="1"
     inkscape:current-layer="svg2"
     fit-margin-top="0"
     fit-margin-left="0"
     fit-margin-right="0"
     fit-margin-bottom="0"
     showguides="true"
     inkscape:guide-bbox="true"><sodipodi:guide
       orientation="1,0"
       position="42.016732,40.266036"
       id="guide4022" /><sodipodi:guide
       orientation="0,1"
       position="33.397915,15.352268"
       id="guide4024" /></sodipodi:namedview><metadata
     id="metadata8"><rdf:RDF><cc:Work
         rdf:about=""><dc:format>image/svg+xml</dc:format><dc:type
           rdf:resource="http://purl.org/dc/dcmitype/StillImage" /><dc:title></dc:title></cc:Work></rdf:RDF></metadata><defs
     id="defs6" /><path
     d="m 0,38.236875 30.59325,0 0,-7.646487 -30.59325,0 0,7.646487 z"
     inkscape:connector-curvature="0"
     id="path14"
     style="fill:#ffffff;fill-opacity:1;fill-rule:nonzero;stroke:none" /><path
     d="m 0,22.943375 30.59325,0 0,-7.64795 -30.59325,0 0,7.64795 z"
     inkscape:connector-curvature="0"
     id="path16"
     style="fill:#ffffff;fill-opacity:1;fill-rule:nonzero;stroke:none" /><path
     d="m 0.00146485,0 0,7.6465 42.06391015,0 0,15.296875 7.6465,0 0,-15.296875 11.47225,0 0,-7.6465 -61.18266015,0"
     inkscape:connector-curvature="0"
     id="path18"
     style="fill:#ffffff;fill-opacity:1;fill-rule:nonzero;stroke:none" /><g
     id="g4007"
     transform="matrix(2.1360975,0,0,2.1360975,42.015689,-84.623177)"
     style="fill:#ffffff;fill-opacity:1"><path
       style="fill:#ffffff;fill-opacity:1;fill-rule:nonzero;stroke:none"
       id="path40"
       inkscape:connector-curvature="0"
       d="m 3.09815,55.237313 -1.9155325,0 0,1.235843 2.1401325,0 0,0.965332 -3.32226171875,0 0,-5.20605 3.21386171875,0 0,0.965325 -2.0317325,0 0,1.08155 1.9155325,0 0,0.958" /><path
       style="fill:#ffffff;fill-opacity:1;fill-rule:nonzero;stroke:none"
       id="path42"
       inkscape:connector-curvature="0"
       d="m 4.500975,57.438488 0,-5.20605 1.375,0 1.08155,1.907712 c 0.3085875,0.548337 0.6181625,1.196775 0.8496,1.784175 l 0.02295,0 c -0.076663,-0.687012 -0.1001,-1.390137 -0.1001,-2.170413 l 0,-1.521474 1.0810625,0 0,5.20605 -1.23535,0 -1.1128,-2.0083 C 6.1543,54.874037 5.81445,54.201675 5.5590875,53.591325 l -0.023437,0.0083 c 0.03125,0.687013 0.046387,1.421388 0.046387,2.270987 l 0,1.567876 -1.0810625,0" /><path
       style="fill:#ffffff;fill-opacity:1;fill-rule:nonzero;stroke:none"
       id="path44"
       inkscape:connector-curvature="0"
       d="m 10.982425,53.2212 -1.39795,0 0,-0.988762 4.001525,0 0,0.988762 -1.42145,0 0,4.217288 -1.182125,0 0,-4.217288" /><path
       style="fill:#ffffff;fill-opacity:1;fill-rule:nonzero;stroke:none"
       id="path46"
       inkscape:connector-curvature="0"
       d="m 15.370625,57.438488 -1.236375,-5.20605 1.25925,0 0.394125,2.146962 c 0.11575,0.618175 0.223625,1.290538 0.309,1.815438 l 0.01525,0 c 0.08488,-0.563963 0.208875,-1.189938 0.34025,-1.830563 l 0.44,-2.131837 1.251,0 0.417375,2.193349 c 0.11625,0.610363 0.20125,1.166513 0.278875,1.745613 l 0.01513,0 c 0.07662,-0.5791 0.192875,-1.18945 0.30075,-1.807125 l 0.424875,-2.131837 1.19775,0 -1.34425,5.20605 -1.2745,0 -0.440875,-2.239751 c -0.100125,-0.525387 -0.1845,-1.0122 -0.247,-1.607412 l -0.01525,0 c -0.09275,0.5874 -0.177625,1.082025 -0.30175,1.607412 l -0.494125,2.239751 -1.2895,0" /><path
       style="fill:#ffffff;fill-opacity:1;fill-rule:nonzero;stroke:none"
       id="path48"
       inkscape:connector-curvature="0"
       d="m 21.693875,57.438488 1.182129,0 0,-5.20605 -1.182129,0 0,5.20605 z" /><path
       style="fill:#ffffff;fill-opacity:1;fill-rule:nonzero;stroke:none"
       id="path50"
       inkscape:connector-curvature="0"
       d="m 27.7495,57.292004 c -0.21575,0.10791 -0.703125,0.224121 -1.335875,0.224121 -1.799875,0 -2.727125,-1.120605 -2.727125,-2.603512 0,-1.776863 1.267125,-2.765625 2.84225,-2.765625 0.610375,0 1.07425,0.123537 1.28225,0.231925 l -0.23925,0.935062 C 27.3325,53.2129 27.001,53.120612 26.583,53.120612 c -0.934125,0 -1.660625,0.563976 -1.660625,1.722175 0,1.042963 0.617625,1.699706 1.668875,1.699706 0.355,0 0.749125,-0.07715 0.9805,-0.169923 l 0.17775,0.919434" /><path
       style="fill:#ffffff;fill-opacity:1;fill-rule:nonzero;stroke:none"
       id="path52"
       inkscape:connector-curvature="0"
       d="m 28.81,52.232438 1.166125,0 0,2.30175 0.02338,0 c 0.11575,-0.201163 0.23975,-0.386713 0.356,-0.571776 l 1.181625,-1.729974 1.444375,0 -1.72325,2.216787 1.816,2.989263 -1.375,0 -1.274875,-2.24805 -0.44825,0.548837 0,1.699213 -1.166125,0 0,-5.20605" /><path
       style="fill:#ffffff;fill-opacity:1;fill-rule:nonzero;stroke:none"
       id="path54"
       inkscape:connector-curvature="0"
       d="m 33.911625,52.232438 1.182625,0 0,4.217281 2.069875,0 0,0.988769 -3.2525,0 0,-5.20605" /><path
       style="fill:#ffffff;fill-opacity:1;fill-rule:nonzero;stroke:none"
       id="path56"
       inkscape:connector-curvature="0"
       d="m 41.213375,55.237313 -1.915,0 0,1.235843 2.139625,0 0,0.965332 -3.32225,0 0,-5.20605 3.213875,0 0,0.965325 -2.03125,0 0,1.08155 1.915,0 0,0.958" /><path
       style="fill:#ffffff;fill-opacity:1;fill-rule:nonzero;stroke:none"
       id="path58"
       inkscape:connector-curvature="0"
       d="m 43.78325,54.542 0.463875,0 c 0.586875,0 0.934,-0.293937 0.934,-0.749513 0,-0.478512 -0.32425,-0.718262 -0.86475,-0.726074 -0.286125,0 -0.44825,0.02344 -0.533125,0.03857 l 0,1.437013 z m -1.1665,-2.240225 c 0.378375,-0.06201 0.942375,-0.1084 1.56825,-0.1084 0.772,0 1.313,0.115713 1.684125,0.409175 0.309125,0.247563 0.4785,0.61035 0.4785,1.08985 0,0.664063 -0.471125,1.119625 -0.918875,1.282225 l 0,0.02295 c 0.36275,0.146475 0.5635,0.494625 0.69475,0.973138 0.162625,0.587405 0.32475,1.267092 0.424875,1.467775 l -1.204625,0 c -0.085,-0.146484 -0.209,-0.571777 -0.36325,-1.2124 -0.13925,-0.648926 -0.36325,-0.826663 -0.841875,-0.834476 l -0.355375,0 0,2.046876 -1.1665,0 0,-5.136713" /><path
       style="fill:#ffffff;fill-opacity:1;fill-rule:nonzero;stroke:none"
       id="path60"
       inkscape:connector-curvature="0"
       d="m 48.557125,53.2212 -1.398375,0 0,-0.988762 4.001375,0 0,0.988762 -1.421375,0 0,4.217288 -1.181625,0 0,-4.217288" /><path
       style="fill:#ffffff;fill-opacity:1;fill-rule:nonzero;stroke:none"
       id="path62"
       inkscape:connector-curvature="0"
       d="M 54.215375,55.221688 53.890125,54.1172 c -0.09225,-0.309088 -0.185,-0.695312 -0.26225,-1.0044 l -0.016,0 c -0.07675,0.309088 -0.154375,0.702638 -0.239375,1.0044 l -0.3085,1.104488 1.151375,0 z m -1.321875,0.880375 -0.37,1.336425 -1.22075,0 1.59075,-5.20605 1.5455,0 1.61475,5.20605 -1.267125,0 -0.401875,-1.336425 -1.49125,0" /><path
       style="fill:#ffffff;fill-opacity:1;fill-rule:nonzero;stroke:none"
       id="path64"
       inkscape:connector-curvature="0"
       d="m 61.202125,57.19923 c -0.36275,0.123535 -1.05025,0.293458 -1.73775,0.293458 -0.95075,0 -1.63775,-0.239747 -2.11725,-0.703125 -0.4785,-0.447754 -0.741125,-1.127925 -0.733375,-1.892575 0.0079,-1.730475 1.267125,-2.71875 2.974125,-2.71875 0.671875,0 1.19,0.13085 1.444375,0.254874 L 60.784625,53.3755 C 60.499,53.251475 60.144,53.151375 59.57225,53.151375 c -0.981,0 -1.722625,0.55615 -1.722625,1.684088 0,1.073725 0.672375,1.70703 1.637625,1.70703 0.270625,0 0.486375,-0.03076 0.579125,-0.07715 l 0,-1.088869 -0.80325,0 0,-0.919437 1.939,0 0,2.742192" /></g></svg>
